<svg xmlns="http://www.w3.org/2000/svg" width="32" height="32" fill="none" viewBox="0 0 32 32">
  <path fill="#FF1D6C" d="M9.644 19.335 2.26 26.629q-.02.021-.052.047c-.105.091-.274.237-.189.393.127.232.372.165.534.069 1.455-.868 4.875-.914 5.533 2.417.033.143.276.276.496.055 1.05-1.05 4.475-2.972 7.071.265.063.114.232.245.41-.143l.05-.121c.318-.787 1.59-3.93 6.656-2.83l-6.32-6.32c-.608.675-2.603 1.397-5.723-1.104-.613-.491-1.082-.022-1.082-.022"/>
  <path fill="#FF1D6C" d="m19.347 9.656 7.294-7.384q.021-.02.047-.052c.09-.105.237-.274.393-.189.232.127.165.372.069.533-.869 1.456-.915 4.876 2.416 5.534.144.032.276.276.056.496-1.05 1.05-2.972 4.475.265 7.071.114.063.245.232-.144.409l-.12.05c-.788.319-3.942 1.812-2.842 6.878l-6.307-6.541c.674-.608 1.396-2.603-1.105-5.723-.492-.613-.023-1.082-.023-1.082"/>
  <path fill="#FF1D6C" d="m17.998 18.106.008-.008.008-.009a3.164 3.164 0 0 1 4.475 0l2.856 2.856c2.149 2.15 1.926 3.93.69 5.166l-.008.008-.008.008c-1.236 1.236-3.016 1.459-5.165-.69l-2.856-2.856a3.164 3.164 0 0 1 0-4.475"/>
  <path fill="#FFC3B7" d="M18.968 20.815c-.448-.447-.42-1.558-.127-1.85.375-.376 1.569-.265 1.906.072.215.215.243.53-.53 1.303-.774.774-1.095.63-1.25.475"/>
  <path fill="#FF1D6C" d="M17.262 11.924a.25.25 0 0 0-.425.202l.31 3.035a.5.5 0 0 1-.144.404L15.5 17.067a.5.5 0 0 1-.404.144l-3.035-.31a.25.25 0 0 0-.202.425l4.172 4.173a3.6 3.6 0 0 0 5.091 0l.312-.312a3.6 3.6 0 0 0 0-5.09z"/>
</svg>
